<svg width="200" height="25" viewBox="0 0 200 25" fill="none" xmlns="http://www.w3.org/2000/svg">
<path fill-rule="evenodd" clip-rule="evenodd" d="M8.47225 14.6217L2.0147 6.25195H0V19.7498H2.4855V10.6487L9.41354 19.7498H10.9574V6.25195H8.47225V14.6217Z" fill="#18191F"/>
<path fill-rule="evenodd" clip-rule="evenodd" d="M24.9341 6.00195C20.3778 6.00195 18.1562 9.56402 18.1562 13.107C18.1562 16.6499 20.3027 20.0581 24.9341 20.0581C29.5655 20.0581 31.6553 16.5728 31.6931 13.0878C31.7308 9.56402 29.4714 6.00195 24.9341 6.00195ZM24.9341 8.31261C28.0406 8.31261 29.2832 10.8543 29.2455 13.1264C29.2078 15.3405 28.0406 17.7283 24.9341 17.7283C21.8276 17.7283 20.6604 15.3599 20.604 13.1455C20.5473 10.8734 21.8276 8.31261 24.9341 8.31261Z" fill="#18191F"/>
<path fill-rule="evenodd" clip-rule="evenodd" d="M50.5263 19.5764L46.535 14.9745C49.0388 14.4548 49.8673 12.5871 49.8673 10.7288C49.8673 8.38926 48.2293 6.27139 45.1229 6.25195C43.0331 6.27139 40.9433 6.25195 38.8535 6.25195V19.7498H41.3387V15.2441H43.7298L47.5704 19.7498H50.5263V19.5764ZM45.1229 8.62061C46.6855 8.62061 47.3822 9.70191 47.3822 10.7864C47.3822 11.8713 46.7045 12.9529 45.1229 12.9529H41.3387V8.62061H45.1229Z" fill="#18191F"/>
<path fill-rule="evenodd" clip-rule="evenodd" d="M60.8495 19.7498H63.3347V8.56261H67.5142V6.25195C63.6924 6.25195 60.4731 6.25195 56.6699 6.25195V8.56261H60.8495V19.7498Z" fill="#18191F"/>
<path fill-rule="evenodd" clip-rule="evenodd" d="M85.7831 19.7483V6.28906H83.3169V11.9693H76.8403V6.28906H74.3555V19.7483H76.8403V14.3185H83.3169V19.7483H85.7831Z" fill="#18191F"/>
<path fill-rule="evenodd" clip-rule="evenodd" d="M97.2383 6.25195V19.7498H106.501V17.4005H99.7235V6.25195H97.2383Z" fill="#18191F"/>
<path fill-rule="evenodd" clip-rule="evenodd" d="M138.595 6.25195C136.976 6.25195 135.037 6.25195 133.418 6.25195V19.7498C135.037 19.7498 136.976 19.7498 138.595 19.7498C143.208 19.7498 145.241 16.3031 145.185 12.8855C145.128 9.54476 143.114 6.25195 138.595 6.25195ZM135.884 8.65885H138.595C141.457 8.65885 142.662 10.7608 142.718 12.8661C142.775 15.0675 141.589 17.3043 138.595 17.3043H135.884V8.65885Z" fill="#18191F"/>
<path fill-rule="evenodd" clip-rule="evenodd" d="M157.146 6.25195C155.527 6.25195 153.588 6.25195 151.969 6.25195V19.7498C153.588 19.7498 155.527 19.7498 157.146 19.7498C161.759 19.7498 163.792 16.3031 163.736 12.8855C163.679 9.54476 161.665 6.25195 157.146 6.25195ZM154.435 8.65885H157.146C160.008 8.65885 161.213 10.7608 161.269 12.8661C161.326 15.0675 160.14 17.3043 157.146 17.3043H154.435V8.65885Z" fill="#18191F"/>
<path fill-rule="evenodd" clip-rule="evenodd" d="M199.444 19.5764L195.453 14.9745C197.957 14.4548 198.785 12.5871 198.785 10.7288C198.785 8.38926 197.147 6.27139 194.041 6.25195C191.951 6.27139 189.861 6.25195 187.771 6.25195V19.7498H190.257V15.2441H192.648L196.488 19.7498H199.444V19.5764ZM194.041 8.62061C195.603 8.62061 196.3 9.70191 196.3 10.7864C196.3 11.8713 195.622 12.9529 194.041 12.9529H190.257V8.62061H194.041Z" fill="#18191F"/>
<path fill-rule="evenodd" clip-rule="evenodd" d="M167.037 19.6807H176.625V17.3535H167.037V19.6807Z" fill="#18191F"/>
<path fill-rule="evenodd" clip-rule="evenodd" d="M169.022 16.0469H178.609L176.625 17.3543H167.037L169.022 16.0469Z" fill="#E5DCF2"/>
<path fill-rule="evenodd" clip-rule="evenodd" d="M169.799 14.8174H179.386V12.4902H169.799V14.8174Z" fill="#18191F"/>
<path fill-rule="evenodd" clip-rule="evenodd" d="M171.783 11.1816H181.371L179.386 12.4891H169.799L171.783 11.1816Z" fill="#E5DCF2"/>
<path fill-rule="evenodd" clip-rule="evenodd" d="M172.559 9.95414H182.146V7.62695H172.559V9.95414Z" fill="#18191F"/>
<path fill-rule="evenodd" clip-rule="evenodd" d="M174.544 6.31836H184.131L182.146 7.62582H172.559L174.544 6.31836Z" fill="#E5DCF2"/>
<path fill-rule="evenodd" clip-rule="evenodd" d="M119.808 6.12959L127.318 20.5L119.48 16.8582L111.641 20.5L119.48 5.5L119.808 6.12959ZM119.48 7.11821L113.337 18.8727L119.48 16.0187V7.11821Z" fill="#18191F"/>
<path fill-rule="evenodd" clip-rule="evenodd" d="M119.479 16.0176V7.11719L113.336 18.8717L119.479 16.0176Z" fill="#E5DCF2"/>
</svg>
