<svg width="49" height="48" viewBox="0 0 49 48" fill="none" xmlns="http://www.w3.org/2000/svg">
<path d="M28.25 21H41C41.3978 21 41.7794 21.158 42.0607 21.4393C42.342 21.7206 42.5 22.1022 42.5 22.5V34.5C42.5 34.8978 42.342 35.2794 42.0607 35.5607C41.7794 35.842 41.3978 36 41 36H29.75C29.3522 36 28.9706 35.842 28.6893 35.5607C28.408 35.2794 28.25 34.8978 28.25 34.5V18C28.25 16.0109 29.0402 14.1032 30.4467 12.6967C31.8532 11.2902 33.7609 10.5 35.75 10.5" fill="#D9C0FF"/>
<path d="M28.25 21H41C41.3978 21 41.7794 21.158 42.0607 21.4393C42.342 21.7206 42.5 22.1022 42.5 22.5V34.5C42.5 34.8978 42.342 35.2794 42.0607 35.5607C41.7794 35.842 41.3978 36 41 36H29.75C29.3522 36 28.9706 35.842 28.6893 35.5607C28.408 35.2794 28.25 34.8978 28.25 34.5V18C28.25 16.0109 29.0402 14.1032 30.4467 12.6967C31.8532 11.2902 33.7609 10.5 35.75 10.5" stroke="#D9C0FF" stroke-linecap="round" stroke-linejoin="round"/>
<path d="M6.5 21H19.25C19.6478 21 20.0294 21.158 20.3107 21.4393C20.592 21.7206 20.75 22.1022 20.75 22.5V34.5C20.75 34.8978 20.592 35.2794 20.3107 35.5607C20.0294 35.842 19.6478 36 19.25 36H8C7.60218 36 7.22064 35.842 6.93934 35.5607C6.65803 35.2794 6.5 34.8978 6.5 34.5L6.5 18C6.5 16.0109 7.29018 14.1032 8.6967 12.6967C10.1032 11.2902 12.0109 10.5 14 10.5" fill="#D9C0FF"/>
<path d="M6.5 21H19.25C19.6478 21 20.0294 21.158 20.3107 21.4393C20.592 21.7206 20.75 22.1022 20.75 22.5V34.5C20.75 34.8978 20.592 35.2794 20.3107 35.5607C20.0294 35.842 19.6478 36 19.25 36H8C7.60218 36 7.22064 35.842 6.93934 35.5607C6.65803 35.2794 6.5 34.8978 6.5 34.5L6.5 18C6.5 16.0109 7.29018 14.1032 8.6967 12.6967C10.1032 11.2902 12.0109 10.5 14 10.5" stroke="#D9C0FF" stroke-linecap="round" stroke-linejoin="round"/>
</svg>
